<svg xmlns="http://www.w3.org/2000/svg" xmlns:xlink="http://www.w3.org/1999/xlink" id="processonSvg1000" viewBox="43.0 14.625 1014.0 571.375" width="1014.0" height="571.375"><defs id="ProcessOnDefs1001"><marker id="ProcessOnMarker1057" markerUnits="userSpaceOnUse" orient="auto" markerWidth="16.23606797749979" markerHeight="10.550836550532098" viewBox="-1.0 -1.3763819204711736 16.23606797749979 10.550836550532098" refX="-1.0" refY="3.8990363547948754"><path id="ProcessOnPath1058" d="M12.0 3.8990363547948754L0.0 7.798072709589751V0.0Z" stroke="#323232" stroke-width="2.0" fill="#323232" transform="matrix(1.0,0.0,0.0,1.0,0.0,0.0)"/></marker><marker id="ProcessOnMarker1064" markerUnits="userSpaceOnUse" orient="auto" markerWidth="16.23606797749979" markerHeight="10.550836550532098" viewBox="-1.0 -1.3763819204711736 16.23606797749979 10.550836550532098" refX="-1.0" refY="3.8990363547948754"><path id="ProcessOnPath1065" d="M12.0 3.8990363547948754L0.0 7.798072709589751V0.0Z" stroke="#323232" stroke-width="2.0" fill="#323232" transform="matrix(1.0,0.0,0.0,1.0,0.0,0.0)"/></marker><marker id="ProcessOnMarker1068" markerUnits="userSpaceOnUse" orient="auto" markerWidth="16.23606797749979" markerHeight="10.550836550532098" viewBox="-1.0 -1.3763819204711736 16.23606797749979 10.550836550532098" refX="-1.0" refY="3.8990363547948754"><path id="ProcessOnPath1069" d="M12.0 3.8990363547948754L0.0 7.798072709589751V0.0Z" stroke="#323232" stroke-width="2.0" fill="#323232" transform="matrix(1.0,0.0,0.0,1.0,0.0,0.0)"/></marker><marker id="ProcessOnMarker1072" markerUnits="userSpaceOnUse" orient="auto" markerWidth="16.23606797749979" markerHeight="10.550836550532098" viewBox="-1.0 -1.3763819204711736 16.23606797749979 10.550836550532098" refX="-1.0" refY="3.8990363547948754"><path id="ProcessOnPath1073" d="M12.0 3.8990363547948754L0.0 7.798072709589751V0.0Z" stroke="#323232" stroke-width="2.0" fill="#323232" transform="matrix(1.0,0.0,0.0,1.0,0.0,0.0)"/></marker><marker id="ProcessOnMarker1079" markerUnits="userSpaceOnUse" orient="auto" markerWidth="16.23606797749979" markerHeight="10.550836550532098" viewBox="-1.0 -1.3763819204711736 16.23606797749979 10.550836550532098" refX="-1.0" refY="3.8990363547948754"><path id="ProcessOnPath1080" d="M12.0 3.8990363547948754L0.0 7.798072709589751V0.0Z" stroke="#323232" stroke-width="2.0" fill="#323232" transform="matrix(1.0,0.0,0.0,1.0,0.0,0.0)"/></marker><marker id="ProcessOnMarker1086" markerUnits="userSpaceOnUse" orient="auto" markerWidth="16.23606797749979" markerHeight="10.550836550532098" viewBox="-1.0 -1.3763819204711736 16.23606797749979 10.550836550532098" refX="-1.0" refY="3.8990363547948754"><path id="ProcessOnPath1087" d="M12.0 3.8990363547948754L0.0 7.798072709589751V0.0Z" stroke="#323232" stroke-width="2.0" fill="#323232" transform="matrix(1.0,0.0,0.0,1.0,0.0,0.0)"/></marker><marker id="ProcessOnMarker1090" markerUnits="userSpaceOnUse" orient="auto" markerWidth="16.23606797749979" markerHeight="10.550836550532098" viewBox="-1.0 -1.3763819204711736 16.23606797749979 10.550836550532098" refX="-1.0" refY="3.8990363547948754"><path id="ProcessOnPath1091" d="M12.0 3.8990363547948754L0.0 7.798072709589751V0.0Z" stroke="#323232" stroke-width="2.0" fill="#323232" transform="matrix(1.0,0.0,0.0,1.0,0.0,0.0)"/></marker><marker id="ProcessOnMarker1094" markerUnits="userSpaceOnUse" orient="auto" markerWidth="16.23606797749979" markerHeight="10.550836550532098" viewBox="-1.0 -1.3763819204711736 16.23606797749979 10.550836550532098" refX="15.23606797749979" refY="3.8990363547948754"><path id="ProcessOnPath1095" d="M12.0 3.8990363547948754L0.0 7.798072709589751V0.0Z" stroke="#323232" stroke-width="2.0" fill="#323232" transform="matrix(-1.0,1.2246467991473532E-16,-1.2246467991473532E-16,-1.0,14.23606797749979,7.798072709589751)"/></marker><marker id="ProcessOnMarker1096" markerUnits="userSpaceOnUse" orient="auto" markerWidth="16.23606797749979" markerHeight="10.550836550532098" viewBox="-1.0 -1.3763819204711736 16.23606797749979 10.550836550532098" refX="-1.0" refY="3.8990363547948754"><path id="ProcessOnPath1097" d="M12.0 3.8990363547948754L0.0 7.798072709589751V0.0Z" stroke="#323232" stroke-width="2.0" fill="#323232" transform="matrix(1.0,0.0,0.0,1.0,0.0,0.0)"/></marker><marker id="ProcessOnMarker1100" markerUnits="userSpaceOnUse" orient="auto" markerWidth="16.23606797749979" markerHeight="10.550836550532098" viewBox="-1.0 -1.3763819204711736 16.23606797749979 10.550836550532098" refX="-1.0" refY="3.8990363547948754"><path id="ProcessOnPath1101" d="M12.0 3.8990363547948754L0.0 7.798072709589751V0.0Z" stroke="#323232" stroke-width="2.0" fill="#323232" transform="matrix(1.0,0.0,0.0,1.0,0.0,0.0)"/></marker><marker id="ProcessOnMarker1104" markerUnits="userSpaceOnUse" orient="auto" markerWidth="16.23606797749979" markerHeight="10.550836550532098" viewBox="-1.0 -1.3763819204711736 16.23606797749979 10.550836550532098" refX="15.23606797749979" refY="3.8990363547948754"><path id="ProcessOnPath1105" d="M12.0 3.8990363547948754L0.0 7.798072709589751V0.0Z" stroke="#323232" stroke-width="2.0" fill="#323232" transform="matrix(-1.0,1.2246467991473532E-16,-1.2246467991473532E-16,-1.0,14.23606797749979,7.798072709589751)"/></marker><marker id="ProcessOnMarker1106" markerUnits="userSpaceOnUse" orient="auto" markerWidth="16.23606797749979" markerHeight="10.550836550532098" viewBox="-1.0 -1.3763819204711736 16.23606797749979 10.550836550532098" refX="-1.0" refY="3.8990363547948754"><path id="ProcessOnPath1107" d="M12.0 3.8990363547948754L0.0 7.798072709589751V0.0Z" stroke="#323232" stroke-width="2.0" fill="#323232" transform="matrix(1.0,0.0,0.0,1.0,0.0,0.0)"/></marker><marker id="ProcessOnMarker1110" markerUnits="userSpaceOnUse" orient="auto" markerWidth="16.23606797749979" markerHeight="10.550836550532098" viewBox="-1.0 -1.3763819204711736 16.23606797749979 10.550836550532098" refX="-1.0" refY="3.8990363547948754"><path id="ProcessOnPath1111" d="M12.0 3.8990363547948754L0.0 7.798072709589751V0.0Z" stroke="#323232" stroke-width="2.0" fill="#323232" transform="matrix(1.0,0.0,0.0,1.0,0.0,0.0)"/></marker><marker id="ProcessOnMarker1114" markerUnits="userSpaceOnUse" orient="auto" markerWidth="16.23606797749979" markerHeight="10.550836550532098" viewBox="-1.0 -1.3763819204711736 16.23606797749979 10.550836550532098" refX="-1.0" refY="3.8990363547948754"><path id="ProcessOnPath1115" d="M12.0 3.8990363547948754L0.0 7.798072709589751V0.0Z" stroke="#323232" stroke-width="2.0" fill="#323232" transform="matrix(1.0,0.0,0.0,1.0,0.0,0.0)"/></marker><marker id="ProcessOnMarker1118" markerUnits="userSpaceOnUse" orient="auto" markerWidth="16.23606797749979" markerHeight="10.550836550532098" viewBox="-1.0 -1.3763819204711736 16.23606797749979 10.550836550532098" refX="-1.0" refY="3.8990363547948754"><path id="ProcessOnPath1119" d="M12.0 3.8990363547948754L0.0 7.798072709589751V0.0Z" stroke="#323232" stroke-width="2.0" fill="#323232" transform="matrix(1.0,0.0,0.0,1.0,0.0,0.0)"/></marker><marker id="ProcessOnMarker1142" markerUnits="userSpaceOnUse" orient="auto" markerWidth="16.23606797749979" markerHeight="10.550836550532098" viewBox="-1.0 -1.3763819204711736 16.23606797749979 10.550836550532098" refX="-1.0" refY="3.8990363547948754"><path id="ProcessOnPath1143" d="M12.0 3.8990363547948754L0.0 7.798072709589751V0.0Z" stroke="#323232" stroke-width="2.0" fill="#323232" transform="matrix(1.0,0.0,0.0,1.0,0.0,0.0)"/></marker><marker id="ProcessOnMarker1146" markerUnits="userSpaceOnUse" orient="auto" markerWidth="16.23606797749979" markerHeight="10.550836550532098" viewBox="-1.0 -1.3763819204711736 16.23606797749979 10.550836550532098" refX="-1.0" refY="3.8990363547948754"><path id="ProcessOnPath1147" d="M12.0 3.8990363547948754L0.0 7.798072709589751V0.0Z" stroke="#323232" stroke-width="2.0" fill="#323232" transform="matrix(1.0,0.0,0.0,1.0,0.0,0.0)"/></marker><marker id="ProcessOnMarker1150" markerUnits="userSpaceOnUse" orient="auto" markerWidth="16.23606797749979" markerHeight="10.550836550532098" viewBox="-1.0 -1.3763819204711736 16.23606797749979 10.550836550532098" refX="-1.0" refY="3.8990363547948754"><path id="ProcessOnPath1151" d="M12.0 3.8990363547948754L0.0 7.798072709589751V0.0Z" stroke="#323232" stroke-width="2.0" fill="#323232" transform="matrix(1.0,0.0,0.0,1.0,0.0,0.0)"/></marker><marker id="ProcessOnMarker1154" markerUnits="userSpaceOnUse" orient="auto" markerWidth="16.23606797749979" markerHeight="10.550836550532098" viewBox="-1.0 -1.3763819204711736 16.23606797749979 10.550836550532098" refX="-1.0" refY="3.8990363547948754"><path id="ProcessOnPath1155" d="M12.0 3.8990363547948754L0.0 7.798072709589751V0.0Z" stroke="#323232" stroke-width="2.0" fill="#323232" transform="matrix(1.0,0.0,0.0,1.0,0.0,0.0)"/></marker><marker id="ProcessOnMarker1158" markerUnits="userSpaceOnUse" orient="auto" markerWidth="16.23606797749979" markerHeight="10.550836550532098" viewBox="-1.0 -1.3763819204711736 16.23606797749979 10.550836550532098" refX="-1.0" refY="3.8990363547948754"><path id="ProcessOnPath1159" d="M12.0 3.8990363547948754L0.0 7.798072709589751V0.0Z" stroke="#323232" stroke-width="2.0" fill="#323232" transform="matrix(1.0,0.0,0.0,1.0,0.0,0.0)"/></marker></defs><g id="ProcessOnG1002"><path id="ProcessOnPath1003" d="M43.0 14.625H1057.0V586.0H43.0V14.625Z" fill="none"/><g id="ProcessOnG1004"><g id="ProcessOnG1005" transform="matrix(1.0,0.0,0.0,1.0,729.6475409836065,400.75)" opacity="1.0"><path id="ProcessOnPath1006" d="M0.0 0.0L121.35245901639344 0.0L121.35245901639344 56.25L0.0 56.25Z" stroke="#323232" stroke-width="2.0" stroke-dasharray="none" opacity="1.0" fill="#ffffff"/></g><g id="ProcessOnG1007" transform="matrix(1.0,0.0,0.0,1.0,720.4016393442623,392.7142857142857)" opacity="1.0"><path id="ProcessOnPath1008" d="M0.0 0.0L121.35245901639344 0.0L121.35245901639344 56.25L0.0 56.25Z" stroke="#323232" stroke-width="2.0" stroke-dasharray="none" opacity="1.0" fill="#ffffff"/></g><g id="ProcessOnG1009" transform="matrix(1.0,0.0,0.0,1.0,63.0,297.0)" opacity="1.0"><path id="ProcessOnPath1010" d="M0.0 0.0L105.0 0.0L105.0 42.0L0.0 42.0Z" stroke="#323232" stroke-width="2.0" stroke-dasharray="none" opacity="1.0" fill="none"/><g id="ProcessOnG1011" transform="matrix(1.0,0.0,0.0,1.0,10.0,10.375)"><text id="ProcessOnText1012" fill="#000000" font-weight="normal" font-style="normal" text-decoration="blink" font-family="微软雅黑" text-anchor="middle" font-size="17" x="42.5" y="17.425">聚合</text></g></g><g id="ProcessOnG1013" transform="matrix(1.0,0.0,0.0,1.0,222.0,220.5)" opacity="1.0"><path id="ProcessOnPath1014" d="M0.0 0.0L105.0 0.0L105.0 42.0L0.0 42.0Z" stroke="#323232" stroke-width="2.0" stroke-dasharray="none" opacity="1.0" fill="none"/><g id="ProcessOnG1015" transform="matrix(1.0,0.0,0.0,1.0,10.0,10.375)"><text id="ProcessOnText1016" fill="#000000" font-weight="normal" font-style="normal" text-decoration="blink" font-family="微软雅黑" text-anchor="middle" font-size="17" x="42.5" y="17.425">事件</text></g></g><g id="ProcessOnG1017" transform="matrix(1.0,0.0,0.0,1.0,262.0,345.0)" opacity="1.0"><path id="ProcessOnPath1018" d="M0.0 0.0L105.0 0.0L105.0 42.0L0.0 42.0Z" stroke="#323232" stroke-width="2.0" stroke-dasharray="none" opacity="1.0" fill="none"/><g id="ProcessOnG1019" transform="matrix(1.0,0.0,0.0,1.0,10.0,10.375)"><text id="ProcessOnText1020" fill="#000000" font-weight="normal" font-style="normal" text-decoration="blink" font-family="微软雅黑" text-anchor="middle" font-size="17" x="42.5" y="17.425">事件发布器</text></g></g><g id="ProcessOnG1021" transform="matrix(1.0,0.0,0.0,1.0,397.0,205.0)" opacity="1.0"><path id="ProcessOnPath1022" d="M0.0 0.0L127.0 0.0L127.0 73.0L0.0 73.0Z" stroke="#323232" stroke-width="2.0" stroke-dasharray="none" opacity="1.0" fill="none"/><g id="ProcessOnG1023" transform="matrix(1.0,0.0,0.0,1.0,10.0,25.875)"><text id="ProcessOnText1024" fill="#000000" font-weight="normal" font-style="normal" text-decoration="blink" font-family="微软雅黑" text-anchor="middle" font-size="17" x="53.5" y="17.425">事件订阅方</text></g></g><g id="ProcessOnG1025" transform="matrix(-1.8369701987210297E-16,-1.0,1.0,-1.8369701987210297E-16,608.0,196.0)" opacity="1.0"><path id="ProcessOnPath1026" d="M11.25 0.0L67.5 0.0C77.04545454545455 0.0 77.04545454545455 45.0 67.5 45.0L11.25 45.0C-3.75 45.0 -3.75 0.0 11.25 0.0ZM67.5 0.0C58.125 0.0 58.125 45.0 67.5 45.0C58.125 45.0 58.125 0.0 67.5 0.0" stroke="#323232" stroke-width="2.0" stroke-dasharray="none" opacity="1.0" fill="#ffffff"/></g><g id="ProcessOnG1027" transform="matrix(1.0,0.0,0.0,1.0,527.0,308.0)" opacity="1.0"><path id="ProcessOnPath1028" d="M0.0 0.0L130.0 0.0L130.0 79.0L0.0 79.0Z" stroke="#323232" stroke-width="2.0" stroke-dasharray="none" opacity="1.0" fill="none"/><g id="ProcessOnG1029" transform="matrix(1.0,0.0,0.0,1.0,10.0,18.25)"><text id="ProcessOnText1030" fill="#000000" font-weight="normal" font-style="normal" text-decoration="blink" font-family="微软雅黑" text-anchor="middle" font-size="17" x="55.0" y="17.425">即时转发订阅</text><text id="ProcessOnText1031" fill="#000000" font-weight="normal" font-style="normal" text-decoration="blink" font-family="微软雅黑" text-anchor="middle" font-size="17" x="55.0" y="38.675">方</text></g></g><g id="ProcessOnG1032" transform="matrix(1.0,0.0,0.0,1.0,425.0,448.9642857142857)" opacity="1.0"><path id="ProcessOnPath1033" d="M0.0 0.0L120.0 0.0L120.0 64.03571428571428L0.0 64.03571428571428Z" stroke="#323232" stroke-width="2.0" stroke-dasharray="none" opacity="1.0" fill="none"/><g id="ProcessOnG1034" transform="matrix(1.0,0.0,0.0,1.0,10.0,21.39285714285714)"><text id="ProcessOnText1035" fill="#000000" font-weight="normal" font-style="normal" text-decoration="blink" font-family="微软雅黑" text-anchor="middle" font-size="17" x="50.0" y="17.425">简单订阅方</text></g></g><g id="ProcessOnG1036" transform="matrix(1.0,0.0,0.0,1.0,721.0,113.0)" opacity="1.0"><path id="ProcessOnPath1037" d="M0.0 0.0L105.0 0.0L105.0 42.0L0.0 42.0Z" stroke="#323232" stroke-width="2.0" stroke-dasharray="none" opacity="1.0" fill="none"/><g id="ProcessOnG1038" transform="matrix(1.0,0.0,0.0,1.0,10.0,10.375)"><text id="ProcessOnText1039" fill="#000000" font-weight="normal" font-style="normal" text-decoration="blink" font-family="微软雅黑" text-anchor="middle" font-size="17" x="42.5" y="17.425">转发器</text></g></g><g id="ProcessOnG1040" transform="matrix(1.0,0.0,0.0,1.0,728.6762295081967,220.5)" opacity="1.0"><path id="ProcessOnPath1041" d="M0.0 0.0L138.0 0.0L138.0 68.0L0.0 68.0Z" stroke="#323232" stroke-width="2.0" stroke-dasharray="none" opacity="1.0" fill="none"/><g id="ProcessOnG1042" transform="matrix(1.0,0.0,0.0,1.0,10.0,23.375)"><text id="ProcessOnText1043" fill="#000000" font-weight="normal" font-style="normal" text-decoration="blink" font-family="微软雅黑" text-anchor="middle" font-size="17" x="59.0" y="17.425">消息队列</text></g></g><g id="ProcessOnG1044" transform="matrix(-1.8369701987210297E-16,-1.0,1.0,-1.8369701987210297E-16,946.0,292.0)" opacity="1.0"><path id="ProcessOnPath1045" d="M11.25 0.0L67.5 0.0C77.04545454545455 0.0 77.04545454545455 45.0 67.5 45.0L11.25 45.0C-3.75 45.0 -3.75 0.0 11.25 0.0ZM67.5 0.0C58.125 0.0 58.125 45.0 67.5 45.0C58.125 45.0 58.125 0.0 67.5 0.0" stroke="#323232" stroke-width="2.0" stroke-dasharray="none" opacity="1.0" fill="#ffffff"/></g><g id="ProcessOnG1046" transform="matrix(1.0,0.0,0.0,1.0,710.0,382.0)" opacity="1.0"><path id="ProcessOnPath1047" d="M0.0 0.0L121.35245901639344 0.0L121.35245901639344 56.25L0.0 56.25Z" stroke="#323232" stroke-width="2.0" stroke-dasharray="none" opacity="1.0" fill="#ffffff"/><g id="ProcessOnG1048" transform="matrix(1.0,0.0,0.0,1.0,10.0,17.5)"><text id="ProcessOnText1049" fill="#000000" font-weight="normal" font-style="normal" text-decoration="blink" font-family="微软雅黑" text-anchor="middle" font-size="17" x="50.67622950819672" y="17.425">远程订阅方</text></g></g><g id="ProcessOnG1050" transform="matrix(1.0,0.0,0.0,1.0,877.0,356.125)" opacity="1.0"><path id="ProcessOnPath1051" d="M0.0 0.0L160.0 0.0L160.0 40.0L0.0 40.0Z" stroke="#323232" stroke-width="0.0" stroke-dasharray="none" opacity="1.0" fill="none"/><g id="ProcessOnG1052" transform="matrix(1.0,0.0,0.0,1.0,0.0,-1.25)"><text id="ProcessOnText1053" fill="#000000" font-weight="normal" font-style="normal" text-decoration="blink" font-family="微软雅黑" text-anchor="middle" font-size="17" x="80.0" y="17.425">消息基础设施</text><text id="ProcessOnText1054" fill="#000000" font-weight="normal" font-style="normal" text-decoration="blink" font-family="微软雅黑" text-anchor="middle" font-size="17" x="80.0" y="38.675">（MoM）</text></g></g><g id="ProcessOnG1055"><path id="ProcessOnPath1056" d="M115.5 297.0C151.0 287.0 173.96251463700457 241.5 206.7639320225002 241.5" stroke="#323232" stroke-width="2.0" stroke-dasharray="none" fill="none" marker-end="url(#ProcessOnMarker1057)"/><g id="ProcessOnG1059" transform="matrix(1.0,0.0,0.0,1.0,162.14393449168927,254.875)"><path id="ProcessOnPath1060" d="M0 0H34.0V21.25H0Z" fill="#fff" transform="matrix(1.0,0.0,0.0,1.0,-17.0,0.0)"/><text id="ProcessOnText1061" fill="#000000" font-weight="normal" font-style="normal" text-decoration="blink" font-family="微软雅黑" text-anchor="middle" font-size="17" x="0.0" y="17.425">创建</text></g></g><g id="ProcessOnG1062"><path id="ProcessOnPath1063" d="M168.0 318.0C210.21847936626804 318.0 219.78152063373196 366.0 246.7639320225002 366.0" stroke="#323232" stroke-width="2.0" stroke-dasharray="none" fill="none" marker-end="url(#ProcessOnMarker1064)"/></g><g id="ProcessOnG1066"><path id="ProcessOnPath1067" d="M314.5 345.0C342.0 286.0 344.0570117957061 241.5 381.7639320225002 241.5" stroke="#323232" stroke-width="2.0" stroke-dasharray="none" fill="none" marker-end="url(#ProcessOnMarker1068)"/></g><g id="ProcessOnG1070"><path id="ProcessOnPath1071" d="M367.0 375.0C422.7059645800691 375.0 485.0 393.25832113421654 485.0 433.72821773678595" stroke="#323232" stroke-width="2.0" stroke-dasharray="none" fill="none" marker-end="url(#ProcessOnMarker1072)"/><g id="ProcessOnG1074" transform="matrix(1.0,0.0,0.0,1.0,446.8897367175259,378.56289764242945)"><path id="ProcessOnPath1075" d="M0 0H34.0V21.25H0Z" fill="#fff" transform="matrix(1.0,0.0,0.0,1.0,-17.0,0.0)"/><text id="ProcessOnText1076" fill="#000000" font-weight="normal" font-style="normal" text-decoration="blink" font-family="微软雅黑" text-anchor="middle" font-size="17" x="0.0" y="17.425">事件</text></g></g><g id="ProcessOnG1077"><path id="ProcessOnPath1078" d="M367.0 358.0C431.1376644414185 357.99999999999994 462.8623355585815 347.5 511.7639320225002 347.5" stroke="#323232" stroke-width="2.0" stroke-dasharray="none" fill="none" marker-end="url(#ProcessOnMarker1079)"/><g id="ProcessOnG1081" transform="matrix(1.0,0.0,0.0,1.0,445.09549150281254,342.125)"><path id="ProcessOnPath1082" d="M0 0H34.0V21.25H0Z" fill="#fff" transform="matrix(1.0,0.0,0.0,1.0,-17.0,0.0)"/><text id="ProcessOnText1083" fill="#000000" font-weight="normal" font-style="normal" text-decoration="blink" font-family="微软雅黑" text-anchor="middle" font-size="17" x="0.0" y="17.425">处理</text></g></g><g id="ProcessOnG1084"><path id="ProcessOnPath1085" d="M592.0 308.0C637.0 273.0 669.9665823110591 254.5 713.4401615306969 254.5" stroke="#323232" stroke-width="2.0" stroke-dasharray="none" fill="none" marker-end="url(#ProcessOnMarker1086)"/></g><g id="ProcessOnG1088"><path id="ProcessOnPath1089" d="M524.0 241.5C571.2355798101389 241.5 560.9441658318501 162.61685204246896 592.8219098610493 159.8279108211328" stroke="#323232" stroke-width="2.0" stroke-dasharray="none" fill="none" marker-end="url(#ProcessOnMarker1090)"/></g><g id="ProcessOnG1092"><path id="ProcessOnPath1093" d="M661.1082018386378 145.6005879839853C664.0 141.0 692.0884106282618 134.0 705.7639320225002 134.0" stroke="#323232" stroke-width="2.0" stroke-dasharray="none" fill="none" marker-start="url(#ProcessOnMarker1094)" marker-end="url(#ProcessOnMarker1096)"/></g><g id="ProcessOnG1098"><path id="ProcessOnPath1099" d="M773.5 155.0C773.5 182.92773552791704 797.6762295081967 192.57226447208296 797.6762295081967 205.2639320225002" stroke="#323232" stroke-width="2.0" stroke-dasharray="none" fill="none" marker-end="url(#ProcessOnMarker1100)"/></g><g id="ProcessOnG1102"><path id="ProcessOnPath1103" d="M881.9122974856965 254.5C898.405737704918 254.5 914.3912321613676 257.2654088539032 930.8219098610493 255.8279108211328" stroke="#323232" stroke-width="2.0" stroke-dasharray="none" fill="none" marker-start="url(#ProcessOnMarker1104)" marker-end="url(#ProcessOnMarker1106)"/></g><g id="ProcessOnG1108"><path id="ProcessOnPath1109" d="M797.6762295081967 288.5C797.6762295081967 327.4281389228923 770.6762295081967 343.0718610771077 770.6762295081967 366.7639320225002" stroke="#323232" stroke-width="2.0" stroke-dasharray="none" fill="none" marker-end="url(#ProcessOnMarker1110)"/></g><g id="ProcessOnG1112"><path id="ProcessOnPath1113" d="M930.0 345.0C904.3743288910097 321.57153982450154 892.5338711371496 308.7472625913559 877.6073274366709 296.2224052775326" stroke="#323232" stroke-width="2.0" stroke-dasharray="none" fill="none" marker-end="url(#ProcessOnMarker1114)"/></g><g id="ProcessOnG1116"><path id="ProcessOnPath1117" d="M914.0 398.0C895.0704918032786 400.8 885.605737704918 402.2 881.7483049110472 402.7705806886578" stroke="#323232" stroke-width="2.0" stroke-dasharray="none" fill="none" marker-end="url(#ProcessOnMarker1118)"/></g><g id="ProcessOnG1120" transform="matrix(1.0,0.0,0.0,1.0,519.0,526.0)" opacity="1.0"><path id="ProcessOnPath1121" d="M0.0 0.0L160.0 0.0L160.0 40.0L0.0 40.0Z" stroke="#323232" stroke-width="0.0" stroke-dasharray="none" opacity="1.0" fill="none"/><g id="ProcessOnG1122" transform="matrix(1.0,0.0,0.0,1.0,0.0,11.875)"><text id="ProcessOnText1123" fill="#000000" font-weight="normal" font-style="normal" text-decoration="blink" font-family="微软雅黑" text-anchor="middle" font-size="13" x="80.0" y="13.325">轻量级订阅方</text></g></g><g id="ProcessOnG1124" transform="matrix(1.0,0.0,0.0,1.0,400.0,39.0)" opacity="1.0"><path id="ProcessOnPath1125" d="M0.0 0.0L160.0 0.0L160.0 40.0L0.0 40.0Z" stroke="#323232" stroke-width="0.0" stroke-dasharray="none" opacity="1.0" fill="none"/><g id="ProcessOnG1126" transform="matrix(1.0,0.0,0.0,1.0,0.0,-4.375)"><text id="ProcessOnText1127" fill="#000000" font-weight="normal" font-style="normal" text-decoration="blink" font-family="微软雅黑" text-anchor="middle" font-size="13" x="80.0" y="13.325">数据存储同样被用于</text><text id="ProcessOnText1128" fill="#000000" font-weight="normal" font-style="normal" text-decoration="blink" font-family="微软雅黑" text-anchor="middle" font-size="13" x="80.0" y="29.575">领域模型</text><text id="ProcessOnText1129" fill="#000000" font-weight="normal" font-style="normal" text-decoration="blink" font-family="微软雅黑" text-anchor="middle" font-size="13" x="80.0" y="45.825">（简单单一事务）</text></g></g><g id="ProcessOnG1130" transform="matrix(1.0,0.0,0.0,1.0,240.0,120.0)" opacity="1.0"><path id="ProcessOnPath1131" d="M0.0 0.0L160.0 0.0L160.0 40.0L0.0 40.0Z" stroke="#323232" stroke-width="0.0" stroke-dasharray="none" opacity="1.0" fill="none"/><g id="ProcessOnG1132" transform="matrix(1.0,0.0,0.0,1.0,0.0,3.75)"><text id="ProcessOnText1133" fill="#000000" font-weight="normal" font-style="normal" text-decoration="blink" font-family="微软雅黑" text-anchor="middle" font-size="13" x="80.0" y="13.325">轻量级订阅方</text><text id="ProcessOnText1134" fill="#000000" font-weight="normal" font-style="normal" text-decoration="blink" font-family="微软雅黑" text-anchor="middle" font-size="13" x="80.0" y="29.575">保存所有事件</text></g></g><g id="ProcessOnG1135" transform="matrix(1.0,0.0,0.0,1.0,589.0,423.0)" opacity="1.0"><path id="ProcessOnPath1136" d="M0.0 0.0L160.0 0.0L160.0 40.0L0.0 40.0Z" stroke="#323232" stroke-width="0.0" stroke-dasharray="none" opacity="1.0" fill="none"/><g id="ProcessOnG1137" transform="matrix(1.0,0.0,0.0,1.0,0.0,3.75)"><text id="ProcessOnText1138" fill="#000000" font-weight="normal" font-style="normal" text-decoration="blink" font-family="微软雅黑" text-anchor="middle" font-size="13" x="80.0" y="13.325">这里需要 </text><text id="ProcessOnText1139" fill="#000000" font-weight="normal" font-style="normal" text-decoration="blink" font-family="微软雅黑" text-anchor="middle" font-size="13" x="80.0" y="29.575">XA/2PC</text></g></g><g id="ProcessOnG1140"><path id="ProcessOnPath1141" d="M539.0 65.0C575.6 87.4 595.0 93.0 618.5371611762355 111.56452149111527" stroke="#323232" stroke-width="2.0" stroke-dasharray="none" fill="none" marker-end="url(#ProcessOnMarker1142)"/></g><g id="ProcessOnG1144"><path id="ProcessOnPath1145" d="M347.0 160.0C367.0 184.4 377.0 204.0 385.39104075988706 211.132384645904" stroke="#323232" stroke-width="2.0" stroke-dasharray="none" fill="none" marker-end="url(#ProcessOnMarker1146)"/></g><g id="ProcessOnG1148"><path id="ProcessOnPath1149" d="M595.0 532.0C575.0 511.59285714285716 563.0 497.0 556.3819705574588 491.1107416567862" stroke="#323232" stroke-width="2.0" stroke-dasharray="none" fill="none" marker-end="url(#ProcessOnMarker1150)"/></g><g id="ProcessOnG1152"><path id="ProcessOnPath1153" d="M608.0 524.0C601.6 469.2 598.0 443.0 593.6231459135471 402.1493618597725" stroke="#323232" stroke-width="2.0" stroke-dasharray="none" fill="none" marker-end="url(#ProcessOnMarker1154)"/></g><g id="ProcessOnG1156"><path id="ProcessOnPath1157" d="M671.0 421.0C671.0 369.8 671.0 344.2 671.0 308.2360679774998" stroke="#323232" stroke-width="2.0" stroke-dasharray="none" fill="none" marker-end="url(#ProcessOnMarker1158)"/></g></g></g></svg>