<svg xmlns="http://www.w3.org/2000/svg" xmlns:xlink="http://www.w3.org/1999/xlink" id="processonSvg1000" viewBox="75.5 -10.0 1192.5 646.0" width="1192.5" height="646.0"><defs id="ProcessOnDefs1001"/><g id="ProcessOnG1002"><path id="ProcessOnPath1003" d="M75.5 -10.0H1268.0V636.0H75.5V-10.0Z" fill="none"/><g id="ProcessOnG1004"><g id="ProcessOnG1005" transform="matrix(1.0,0.0,0.0,1.0,173.0,133.0)" opacity="1.0"><path id="ProcessOnPath1006" d="M0.0 0.0L184.0 0.0L184.0 117.0L0.0 117.0Z" stroke="#ffffff" stroke-width="1.0" stroke-dasharray="none" opacity="1.0" fill="#ffff00"/><g id="ProcessOnG1007" transform="matrix(1.0,0.0,0.0,1.0,10.0,48.5)"><text id="ProcessOnText1008" fill="#000000" font-weight="normal" font-style="normal" text-decoration="blink" font-family="微软雅黑" text-anchor="middle" font-size="16" x="82.0" y="16.4">商品</text></g></g><g id="ProcessOnG1009" transform="matrix(1.0,0.0,0.0,1.0,101.0,107.0)" opacity="1.0"><path id="ProcessOnPath1010" d="M0.0 0.0L100.0 0.0L100.0 70.0L0.0 70.0Z" stroke="#ffffff" stroke-width="1.0" stroke-dasharray="none" opacity="1.0" fill="#66b2ff"/><g id="ProcessOnG1011" transform="matrix(1.0,0.0,0.0,1.0,10.0,25.0)"><text id="ProcessOnText1012" fill="#000000" font-weight="normal" font-style="normal" text-decoration="blink" font-family="微软雅黑" text-anchor="middle" font-size="16" x="40.0" y="16.4">添加商品</text></g></g><g id="ProcessOnG1013" transform="matrix(1.0,0.0,0.0,1.0,318.0,107.0)" opacity="1.0"><path id="ProcessOnPath1014" d="M0.0 0.0L100.0 0.0L100.0 70.0L0.0 70.0Z" stroke="#ffffff" stroke-width="1.0" stroke-dasharray="none" opacity="1.0" fill="#ff8000"/><g id="ProcessOnG1015" transform="matrix(1.0,0.0,0.0,1.0,10.0,25.0)"><text id="ProcessOnText1016" fill="#000000" font-weight="normal" font-style="normal" text-decoration="blink" font-family="微软雅黑" text-anchor="middle" font-size="16" x="40.0" y="16.4">商品已创建</text></g></g><g id="ProcessOnG1017" transform="matrix(1.0,0.0,0.0,1.0,167.5,312.0)" opacity="1.0"><path id="ProcessOnPath1018" d="M0.0 0.0L184.0 0.0L184.0 117.0L0.0 117.0Z" stroke="#ffffff" stroke-width="1.0" stroke-dasharray="none" opacity="1.0" fill="#ffff00"/><g id="ProcessOnG1019" transform="matrix(1.0,0.0,0.0,1.0,10.0,48.5)"><text id="ProcessOnText1020" fill="#000000" font-weight="normal" font-style="normal" text-decoration="blink" font-family="微软雅黑" text-anchor="middle" font-size="16" x="82.0" y="16.4">库存</text></g></g><g id="ProcessOnG1021" transform="matrix(1.0,0.0,0.0,1.0,95.5,286.0)" opacity="1.0"><path id="ProcessOnPath1022" d="M0.0 0.0L100.0 0.0L100.0 70.0L0.0 70.0Z" stroke="#ffffff" stroke-width="1.0" stroke-dasharray="none" opacity="1.0" fill="#66b2ff"/><g id="ProcessOnG1023" transform="matrix(1.0,0.0,0.0,1.0,10.0,25.0)"><text id="ProcessOnText1024" fill="#000000" font-weight="normal" font-style="normal" text-decoration="blink" font-family="微软雅黑" text-anchor="middle" font-size="16" x="40.0" y="16.4">编辑库存</text></g></g><g id="ProcessOnG1025" transform="matrix(1.0,0.0,0.0,1.0,312.5,286.0)" opacity="1.0"><path id="ProcessOnPath1026" d="M0.0 0.0L100.0 0.0L100.0 70.0L0.0 70.0Z" stroke="#ffffff" stroke-width="1.0" stroke-dasharray="none" opacity="1.0" fill="#ff8000"/><g id="ProcessOnG1027" transform="matrix(1.0,0.0,0.0,1.0,10.0,25.0)"><text id="ProcessOnText1028" fill="#000000" font-weight="normal" font-style="normal" text-decoration="blink" font-family="微软雅黑" text-anchor="middle" font-size="16" x="40.0" y="16.4">库存已增加</text></g></g><g id="ProcessOnG1029" transform="matrix(1.0,0.0,0.0,1.0,404.5,312.0)" opacity="1.0"><path id="ProcessOnPath1030" d="M0.0 0.0L100.0 0.0L100.0 70.0L0.0 70.0Z" stroke="#ffffff" stroke-width="1.0" stroke-dasharray="none" opacity="1.0" fill="#ff8000"/><g id="ProcessOnG1031" transform="matrix(1.0,0.0,0.0,1.0,10.0,25.0)"><text id="ProcessOnText1032" fill="#000000" font-weight="normal" font-style="normal" text-decoration="blink" font-family="微软雅黑" text-anchor="middle" font-size="16" x="40.0" y="16.4">库存已扣减</text></g></g><g id="ProcessOnG1033" transform="matrix(1.0,0.0,0.0,1.0,320.5,388.0)" opacity="1.0"><path id="ProcessOnPath1034" d="M0.0 0.0L100.0 0.0L100.0 70.0L0.0 70.0Z" stroke="#ffffff" stroke-width="1.0" stroke-dasharray="none" opacity="1.0" fill="#ff8000"/><g id="ProcessOnG1035" transform="matrix(1.0,0.0,0.0,1.0,10.0,25.0)"><text id="ProcessOnText1036" fill="#000000" font-weight="normal" font-style="normal" text-decoration="blink" font-family="微软雅黑" text-anchor="middle" font-size="16" x="40.0" y="16.4">库存已恢复</text></g></g><g id="ProcessOnG1037" transform="matrix(1.0,0.0,0.0,1.0,412.5,421.0)" opacity="1.0"><path id="ProcessOnPath1038" d="M0.0 0.0L100.0 0.0L100.0 70.0L0.0 70.0Z" stroke="#ffffff" stroke-width="1.0" stroke-dasharray="none" opacity="1.0" fill="#ff8000"/><g id="ProcessOnG1039" transform="matrix(1.0,0.0,0.0,1.0,10.0,25.0)"><text id="ProcessOnText1040" fill="#000000" font-weight="normal" font-style="normal" text-decoration="blink" font-family="微软雅黑" text-anchor="middle" font-size="16" x="40.0" y="16.4">库存已锁定</text></g></g><g id="ProcessOnG1041" transform="matrix(1.0,0.0,0.0,1.0,662.0,169.0)" opacity="1.0"><path id="ProcessOnPath1042" d="M0.0 0.0L184.0 0.0L184.0 117.0L0.0 117.0Z" stroke="#ffffff" stroke-width="1.0" stroke-dasharray="none" opacity="1.0" fill="#ffff00"/><g id="ProcessOnG1043" transform="matrix(1.0,0.0,0.0,1.0,10.0,48.5)"><text id="ProcessOnText1044" fill="#000000" font-weight="normal" font-style="normal" text-decoration="blink" font-family="微软雅黑" text-anchor="middle" font-size="16" x="82.0" y="16.4">订单</text></g></g><g id="ProcessOnG1045" transform="matrix(1.0,0.0,0.0,1.0,582.0,133.0)" opacity="1.0"><path id="ProcessOnPath1046" d="M0.0 0.0L100.0 0.0L100.0 70.0L0.0 70.0Z" stroke="#ffffff" stroke-width="1.0" stroke-dasharray="none" opacity="1.0" fill="#66b2ff"/><g id="ProcessOnG1047" transform="matrix(1.0,0.0,0.0,1.0,10.0,25.0)"><text id="ProcessOnText1048" fill="#000000" font-weight="normal" font-style="normal" text-decoration="blink" font-family="微软雅黑" text-anchor="middle" font-size="16" x="40.0" y="16.4">提交订单</text></g></g><g id="ProcessOnG1049" transform="matrix(1.0,0.0,0.0,1.0,819.0,127.5)" opacity="1.0"><path id="ProcessOnPath1050" d="M0.0 0.0L100.0 0.0L100.0 70.0L0.0 70.0Z" stroke="#ffffff" stroke-width="1.0" stroke-dasharray="none" opacity="1.0" fill="#ff8000"/><g id="ProcessOnG1051" transform="matrix(1.0,0.0,0.0,1.0,10.0,25.0)"><text id="ProcessOnText1052" fill="#000000" font-weight="normal" font-style="normal" text-decoration="blink" font-family="微软雅黑" text-anchor="middle" font-size="16" x="40.0" y="16.4">订单已创建</text></g></g><g id="ProcessOnG1053" transform="matrix(1.0,0.0,0.0,1.0,582.0,258.0)" opacity="1.0"><path id="ProcessOnPath1054" d="M0.0 0.0L100.0 0.0L100.0 70.0L0.0 70.0Z" stroke="#ffffff" stroke-width="1.0" stroke-dasharray="none" opacity="1.0" fill="#66b2ff"/><g id="ProcessOnG1055" transform="matrix(1.0,0.0,0.0,1.0,10.0,25.0)"><text id="ProcessOnText1056" fill="#000000" font-weight="normal" font-style="normal" text-decoration="blink" font-family="微软雅黑" text-anchor="middle" font-size="16" x="40.0" y="16.4">提交投诉</text></g></g><g id="ProcessOnG1057" transform="matrix(1.0,0.0,0.0,1.0,875.0,178.5)" opacity="1.0"><path id="ProcessOnPath1058" d="M0.0 0.0L100.0 0.0L100.0 70.0L0.0 70.0Z" stroke="#ffffff" stroke-width="1.0" stroke-dasharray="none" opacity="1.0" fill="#ff8000"/><g id="ProcessOnG1059" transform="matrix(1.0,0.0,0.0,1.0,10.0,25.0)"><text id="ProcessOnText1060" fill="#000000" font-weight="normal" font-style="normal" text-decoration="blink" font-family="微软雅黑" text-anchor="middle" font-size="16" x="40.0" y="16.4">订单已支付</text></g></g><g id="ProcessOnG1061" transform="matrix(1.0,0.0,0.0,1.0,795.0,258.0)" opacity="1.0"><path id="ProcessOnPath1062" d="M0.0 0.0L100.0 0.0L100.0 70.0L0.0 70.0Z" stroke="#ffffff" stroke-width="1.0" stroke-dasharray="none" opacity="1.0" fill="#ff8000"/><g id="ProcessOnG1063" transform="matrix(1.0,0.0,0.0,1.0,10.0,25.0)"><text id="ProcessOnText1064" fill="#000000" font-weight="normal" font-style="normal" text-decoration="blink" font-family="微软雅黑" text-anchor="middle" font-size="16" x="40.0" y="16.4">订单已撤销</text></g></g><g id="ProcessOnG1065" transform="matrix(1.0,0.0,0.0,1.0,866.0,310.0)" opacity="1.0"><path id="ProcessOnPath1066" d="M0.0 0.0L100.0 0.0L100.0 70.0L0.0 70.0Z" stroke="#ffffff" stroke-width="1.0" stroke-dasharray="none" opacity="1.0" fill="#ff8000"/><g id="ProcessOnG1067" transform="matrix(1.0,0.0,0.0,1.0,10.0,25.0)"><text id="ProcessOnText1068" fill="#000000" font-weight="normal" font-style="normal" text-decoration="blink" font-family="微软雅黑" text-anchor="middle" font-size="16" x="40.0" y="16.4">订单已投诉</text></g></g><g id="ProcessOnG1069" transform="matrix(1.0,0.0,0.0,1.0,1050.0,147.5)" opacity="1.0"><path id="ProcessOnPath1070" d="M0.0 0.0L100.0 0.0L100.0 70.0L0.0 70.0Z" stroke="#ffffff" stroke-width="1.0" stroke-dasharray="none" opacity="1.0" fill="#ff3399"/><g id="ProcessOnG1071" transform="matrix(1.0,0.0,0.0,1.0,10.0,25.0)"><text id="ProcessOnText1072" fill="#000000" font-weight="normal" font-style="normal" text-decoration="blink" font-family="微软雅黑" text-anchor="middle" font-size="16" x="40.0" y="16.4">支付宝回调</text></g></g><g id="ProcessOnG1073"><path id="ProcessOnPath1074" d="M139.0 55.0C835.0 10.0 185.0 481.0 956.0 404.0" stroke="#323232" stroke-width="2.0" stroke-dasharray="10.0 4.0" fill="none"/></g><g id="ProcessOnG1075"><path id="ProcessOnPath1076" d="M906.0 54.0C926.8 194.8 1163.0 183.0 958.0 406.0" stroke="#323232" stroke-width="2.0" stroke-dasharray="10.0 4.0" fill="none"/></g><g id="ProcessOnG1077"><path id="ProcessOnPath1078" d="M1041.0 275.0C1096.6 198.2 1223.0 314.0 1180.0 83.0" stroke="#323232" stroke-width="2.0" stroke-dasharray="10.0 4.0" fill="none"/></g><g id="ProcessOnG1079"><path id="ProcessOnPath1080" d="M207.0 578.0C591.0 616.0 798.0 508.0 823.0 414.0" stroke="#323232" stroke-width="2.0" stroke-dasharray="10.0 4.0" fill="none"/></g><g id="ProcessOnG1081"><path id="ProcessOnPath1082" d="M966.0 406.0C1147.0 392.0 1090.2 504.4 1173.0 570.0" stroke="#323232" stroke-width="2.0" stroke-dasharray="10.0 4.0" fill="none"/></g><g id="ProcessOnG1083" transform="matrix(1.0,0.0,0.0,1.0,836.0,519.0)" opacity="1.0"><path id="ProcessOnPath1084" d="M0.0 0.0L160.0 0.0L160.0 40.0L0.0 40.0Z" stroke="#323232" stroke-width="0.0" stroke-dasharray="none" opacity="1.0" fill="none"/><g id="ProcessOnG1085" transform="matrix(1.0,0.0,0.0,1.0,0.0,10.0)"><text id="ProcessOnText1086" fill="#000000" font-weight="normal" font-style="normal" text-decoration="blink" font-family="微软雅黑" text-anchor="middle" font-size="16" x="80.0" y="16.4">其他子域。。</text></g></g><g id="ProcessOnG1087" transform="matrix(1.0,0.0,0.0,1.0,1088.0,325.0)" opacity="1.0"><path id="ProcessOnPath1088" d="M0.0 0.0L160.0 0.0L160.0 40.0L0.0 40.0Z" stroke="#323232" stroke-width="0.0" stroke-dasharray="none" opacity="1.0" fill="none"/><g id="ProcessOnG1089" transform="matrix(1.0,0.0,0.0,1.0,0.0,10.0)"><text id="ProcessOnText1090" fill="#000000" font-weight="normal" font-style="normal" text-decoration="blink" font-family="微软雅黑" text-anchor="middle" font-size="16" x="80.0" y="16.4">其他子域。。</text></g></g><g id="ProcessOnG1091" transform="matrix(1.0,0.0,0.0,1.0,582.0,67.0)" opacity="1.0"><path id="ProcessOnPath1092" d="M0.0 0.0L160.0 0.0L160.0 40.0L0.0 40.0Z" stroke="#323232" stroke-width="0.0" stroke-dasharray="none" opacity="1.0" fill="none"/><g id="ProcessOnG1093" transform="matrix(1.0,0.0,0.0,1.0,0.0,10.0)"><text id="ProcessOnText1094" fill="#000000" font-weight="normal" font-style="normal" text-decoration="blink" font-family="微软雅黑" text-anchor="middle" font-size="16" x="80.0" y="16.4">销售子域</text></g></g><g id="ProcessOnG1095" transform="matrix(1.0,0.0,0.0,1.0,1000.0,87.0)" opacity="1.0"><path id="ProcessOnPath1096" d="M0.0 0.0L160.0 0.0L160.0 40.0L0.0 40.0Z" stroke="#323232" stroke-width="0.0" stroke-dasharray="none" opacity="1.0" fill="none"/><g id="ProcessOnG1097" transform="matrix(1.0,0.0,0.0,1.0,0.0,10.0)"><text id="ProcessOnText1098" fill="#000000" font-weight="normal" font-style="normal" text-decoration="blink" font-family="微软雅黑" text-anchor="middle" font-size="16" x="80.0" y="16.4">支付子域</text></g></g><g id="ProcessOnG1099" transform="matrix(1.0,0.0,0.0,1.0,104.0,479.0)" opacity="1.0"><path id="ProcessOnPath1100" d="M0.0 0.0L160.0 0.0L160.0 40.0L0.0 40.0Z" stroke="#323232" stroke-width="0.0" stroke-dasharray="none" opacity="1.0" fill="none"/><g id="ProcessOnG1101" transform="matrix(1.0,0.0,0.0,1.0,0.0,10.0)"><text id="ProcessOnText1102" fill="#000000" font-weight="normal" font-style="normal" text-decoration="blink" font-family="微软雅黑" text-anchor="middle" font-size="16" x="80.0" y="16.4">库存子域</text></g></g></g></g></svg>